<?xml version="1.0" standalone="no"?>
<!DOCTYPE svg PUBLIC "-//W3C//DTD SVG 20010904//EN"
 "http://www.w3.org/TR/2001/REC-SVG-20010904/DTD/svg10.dtd">
<svg version="1.0" xmlns="http://www.w3.org/2000/svg"
 width="512.000000pt" height="512.000000pt" viewBox="0 0 512.000000 512.000000"
 preserveAspectRatio="xMidYMid meet">

<g transform="translate(0.000000,512.000000) scale(0.100000,-0.100000)"
fill="currentColor" stroke="none">
<path d="M2460 4689 c-123 -10 -250 -47 -375 -109 -650 -322 -795 -1182 -286
-1699 157 -160 358 -267 574 -306 l72 -13 -107 -1 c-484 -4 -958 -199 -1311
-540 -271 -262 -444 -553 -536 -902 -60 -227 -82 -507 -46 -582 24 -52 79 -94
137 -107 71 -15 3888 -14 3959 1 40 9 62 21 94 54 56 55 64 94 54 261 -38 635
-400 1223 -956 1550 -283 167 -622 261 -948 265 l-110 1 72 13 c199 36 390
132 547 276 123 112 249 320 295 489 117 421 -37 874 -388 1141 -137 104 -362
193 -518 205 -37 3 -81 6 -98 7 -16 2 -73 0 -125 -4z"/>
</g>
</svg>
