<svg class="svg-inline--fa fa-tags fa-w-20"
        role="img" aria-hidden="true" focusable="false" data-prefix="fas" data-icon="pescador"  height="200px" width="200px" version="1.1" id="Capa_1" xmlns="http://www.w3.org/2000/svg" xmlns:xlink="http://www.w3.org/1999/xlink" viewBox="0 0 60.012 60.012" xml:space="preserve" stroke="#000000"><g id="SVGRepo_bgCarrier" stroke-width="0"></g><g id="SVGRepo_tracerCarrier" stroke-linecap="round" stroke-linejoin="round"></g><g id="SVGRepo_iconCarrier"> <g> 
    <path fill="currentcolor" d="M51.878,29.497l7.386-7.386c0.998-0.998,0.998-2.616,0-3.614l-2.042-2.042c-0.994-0.994-2.62-0.994-3.614,0l-8.859,8.858 c-5.936-4.288-13.271-6.64-20.76-6.64c-8.957,0-16.603,3.161-23.374,9.663C0.225,28.71,0,29.237,0,29.779s0.225,1.069,0.615,1.443 c6.773,6.503,14.42,9.665,23.376,9.665c7.43,0,14.72-2.319,20.631-6.547L54,43.718c0.378,0.378,0.88,0.586,1.414,0.586 s1.036-0.208,1.414-0.586l2.435-2.435c0.998-0.998,0.998-2.616,0-3.614l-7.386-7.386C51.661,30.065,51.661,29.714,51.878,29.497z M41.262,30.602C36.247,34.061,30.278,35.889,24,35.889c-6.01,0-11.406-1.688-16.499-5.159C7.187,30.517,7,30.161,7,29.779 s0.187-0.738,0.501-0.952C12.593,25.356,17.99,23.669,24,23.669c6.278,0,12.247,1.828,17.262,5.287l1.193,0.823L41.262,30.602z"></path>  </g> </g>

    </svg>