
<!-- <svg version="1.0" xmlns="http://www.w3.org/2000/svg"
 width="512.000000pt" height="512.000000pt" viewBox="0 0 512.000000 512.000000"
 preserveAspectRatio="xMidYMid meet"> -->
<svg role="img" aria-hidden="true" focusable="false" data-prefix="fas" data-icon="code" xmlns="http://www.w3.org/2000/svg" width="16" height="16" fill="currentColor" viewBox="0 0 512 512">

<g transform="translate(0.000000,512.000000) scale(0.100000,-0.100000)" stroke="none">
<path d="M4540 4427 c-279 -140 -496 -283 -637 -421 l-63 -62 0 -93 0 -94 -40
-43 c-39 -42 -40 -46 -40 -114 l0 -70 -60 30 c-33 16 -69 30 -80 30 -53 0 -97
-81 -148 -270 -22 -84 -25 -115 -26 -265 0 -139 4 -187 21 -261 42 -178 118
-353 219 -505 51 -76 52 -78 42 -123 l-10 -46 -76 0 c-132 0 -224 -62 -257
-173 -13 -43 -13 -71 0 -225 30 -354 46 -527 51 -544 5 -17 -9 -18 -199 -18
l-204 0 -6 118 c-8 159 -41 285 -116 437 -160 325 -460 548 -812 607 -69 11
-70 11 -67 41 3 27 9 31 86 57 376 128 653 456 717 851 19 118 19 188 0 314
-39 257 -141 464 -311 630 -142 139 -323 233 -529 276 -114 24 -319 25 -435 3
-499 -94 -834 -487 -866 -1015 -29 -464 281 -910 738 -1063 67 -23 73 -27 76
-54 3 -29 2 -29 -67 -40 -512 -85 -904 -524 -928 -1039 l-6 -123 -52 0 c-116
0 -213 -56 -262 -153 -73 -144 -15 -313 130 -378 l52 -24 2190 0 2190 0 50 27
c101 53 150 134 150 248 0 114 -49 195 -150 248 -48 26 -58 27 -228 30 -178 4
-179 4 -173 25 5 22 24 223 50 541 12 137 12 177 2 217 -16 62 -55 112 -114
146 -46 28 -50 28 -252 33 l-206 5 9 42 c7 39 11 43 45 49 87 14 228 56 297
88 105 48 178 99 271 189 105 100 136 145 132 189 -3 29 1 34 27 43 35 12 61
54 110 180 47 121 90 294 109 443 23 175 24 169 -33 222 l-50 47 45 21 c64 31
67 45 54 250 -12 201 -21 278 -52 457 -24 143 -42 175 -96 175 -15 0 -109 -41
-212 -93z m-2575 -92 c344 -72 597 -315 691 -661 27 -98 27 -369 0 -468 -93
-347 -337 -581 -691 -662 -58 -14 -117 -19 -215 -18 -116 1 -147 5 -225 28
-323 97 -562 340 -647 656 -32 122 -32 338 0 460 64 238 232 455 445 574 69
39 216 91 298 105 74 14 247 6 344 -14z m2729 -32 c14 -47 44 -330 48 -447 l2
-89 -74 -29 c-83 -32 -110 -56 -110 -98 0 -34 15 -52 106 -124 56 -44 71 -61
68 -79 -2 -12 -8 -60 -14 -107 -14 -110 -52 -260 -90 -359 l-31 -79 -52 14
c-74 20 -95 18 -122 -12 -33 -36 -31 -62 10 -143 l34 -69 -35 -41 c-84 -98
-243 -194 -392 -237 -51 -14 -95 -24 -98 -22 -6 7 57 216 102 338 50 135 172
379 243 485 38 56 61 101 61 118 0 55 -69 94 -119 67 -24 -12 -125 -169 -195
-301 -86 -164 -191 -436 -242 -629 l-10 -35 -47 92 c-140 271 -172 562 -92
830 l16 53 79 -40 c92 -47 117 -49 154 -15 25 23 26 27 26 141 l0 117 40 43
40 44 0 97 1 98 77 63 c115 95 310 222 462 301 74 39 138 71 142 71 4 0 9 -8
12 -17z m-2824 -2017 c0 -102 -19 -126 -98 -126 -43 0 -61 5 -79 22 -20 19
-23 31 -23 100 l0 78 100 0 100 0 0 -74z m-451 -378 c-54 -145 -99 -273 -99
-285 0 -12 15 -39 32 -60 48 -56 305 -333 344 -370 l34 -33 -530 0 -530 0 0
83 c0 155 53 336 142 484 49 84 189 226 282 287 101 68 176 101 291 131 150
40 147 63 34 -237z m719 242 c313 -75 574 -313 678 -617 38 -114 54 -199 54
-300 l0 -73 -541 0 -540 0 25 23 c13 12 106 109 205 216 143 153 181 199 181
221 0 15 -42 139 -94 276 -51 137 -91 255 -89 262 7 16 24 15 121 -8z m-386
-147 c43 -3 91 0 107 5 l30 11 25 -67 c14 -37 46 -121 70 -186 l45 -120 -46
-50 c-26 -28 -87 -93 -135 -145 l-88 -93 -88 93 c-48 52 -108 116 -134 144
l-46 50 70 188 c66 174 73 188 92 182 12 -4 56 -10 98 -12z m2525 -67 c24 -21
27 -30 25 -79 -6 -144 -53 -640 -62 -657 -6 -11 -19 -24 -30 -30 -25 -14 -555
-14 -580 0 -11 6 -24 20 -31 31 -14 28 -69 678 -58 705 19 53 28 54 381 54
l327 0 28 -24z m453 -949 c13 -7 35 -28 48 -47 32 -47 25 -101 -17 -144 l-31
-31 -2156 -3 c-2391 -2 -2205 -8 -2238 63 -20 42 -20 68 0 110 33 70 -152 65
2224 65 1696 0 2150 -3 2170 -13z"/>
</g>
</svg>
