<svg aria-hidden="true" focusable="false" data-prefix="fas" data-icon="bible" class="svg-inline--fa fa-tags fa-w-20"
fill="currentcolor"
        role="img"  height="200px" width="200px" version="1.1" id="Capa_1" xmlns="http://www.w3.org/2000/svg" xmlns:xlink="http://www.w3.org/1999/xlink" viewBox="0 0 58 58" xml:space="preserve"><g id="SVGRepo_bgCarrier" stroke-width="0"></g><g id="SVGRepo_tracerCarrier" stroke-linecap="round" stroke-linejoin="round"></g><g id="SVGRepo_iconCarrier"> <g> 
    <path fill="currentcolor" d="M49.996,6.982c-0.002-0.114-0.027-0.224-0.067-0.33c-0.014-0.038-0.034-0.071-0.052-0.106 c-0.036-0.069-0.078-0.133-0.13-0.193c-0.029-0.034-0.058-0.065-0.092-0.094C49.636,6.24,49.622,6.217,49.6,6.2 c-0.417-0.313-0.712-0.733-0.895-1.2H40c-0.553,0-1-0.448-1-1s0.447-1,1-1h8.704c0.183-0.468,0.478-0.887,0.895-1.2 c0.345-0.258,0.485-0.708,0.349-1.116C49.812,0.275,49.431,0,49,0H12C9.794,0,8,1.794,8,4c0,0.228,0.031,0.449,0.067,0.667 C8.03,4.773,8,4.882,8,5v40.831C8,48.681,10.318,51,13.169,51H15v6c0,0.404,0.243,0.769,0.617,0.924 c0.374,0.154,0.804,0.069,1.09-0.217l3.038-3.038c0.184-0.184,0.326-0.184,0.51,0l3.038,3.038C23.484,57.898,23.74,58,24,58 c0.129,0,0.259-0.025,0.383-0.076C24.757,57.769,25,57.404,25,57v-6h24c0.553,0,1-0.448,1-1V7C50,6.994,49.996,6.988,49.996,6.982z M48,49H24h-8h-2.831C11.422,49,10,47.578,10,45.831V7.459c0.138,0.082,0.28,0.152,0.424,0.215 c0.008,0.004,0.016,0.009,0.024,0.012c0.222,0.096,0.453,0.163,0.689,0.214c0.041,0.009,0.082,0.017,0.123,0.024 C11.501,7.97,11.745,8,12,8h36V49z"></path> <polygon points="25.051,47 33,47 33,26 41,26 41,18 33,18 33,10 25,10 25,18 17,18 17,26 25.002,26 "></polygon> </g> </g></svg>