<svg fill="currentcolor" height="200px" width="200px" version="1.1" xmlns="http://www.w3.org/2000/svg" xmlns:xlink="http://www.w3.org/1999/xlink" viewBox="0 0 60 60" xml:space="preserve"><g id="SVGRepo_bgCarrier" stroke-width="0"></g><g id="SVGRepo_tracerCarrier" stroke-linecap="round" stroke-linejoin="round"></g><g id="SVGRepo_iconCarrier"> <g> <path d="M27,10h6.796l-5.549,6.341c-0.363,0.416-0.321,1.047,0.095,1.411C28.531,17.918,28.766,18,29,18 c0.278,0,0.555-0.116,0.753-0.341l7-8c0.258-0.295,0.32-0.715,0.157-1.072C36.748,8.229,36.392,8,36,8h-7l4.8-6.4 c0.332-0.442,0.242-1.069-0.2-1.4c-0.44-0.332-1.068-0.241-1.399,0.2l-6,8c-0.228,0.303-0.264,0.708-0.095,1.047 C26.275,9.786,26.621,10,27,10z"></path> <path d="M43,14c-5.894,0-10.939,3.666-13,8.834C27.939,17.666,22.894,14,17,14C9.28,14,3,20.28,3,28v32h26h2h26V28 C57,20.28,50.72,14,43,14z M25,53H9c-0.553,0-1-0.448-1-1s0.447-1,1-1h16c0.553,0,1,0.448,1,1S25.553,53,25,53z M25,49H9 c-0.553,0-1-0.448-1-1s0.447-1,1-1h16c0.553,0,1,0.448,1,1S25.553,49,25,49z M25,45H9c-0.553,0-1-0.448-1-1s0.447-1,1-1h16 c0.553,0,1,0.448,1,1S25.553,45,25,45z M25,41H9c-0.553,0-1-0.448-1-1s0.447-1,1-1h16c0.553,0,1,0.448,1,1S25.553,41,25,41z M25,37 H9c-0.553,0-1-0.448-1-1s0.447-1,1-1h16c0.553,0,1,0.448,1,1S25.553,37,25,37z M25,33H9c-0.553,0-1-0.448-1-1s0.447-1,1-1h16 c0.553,0,1,0.448,1,1S25.553,33,25,33z M25,29H9c-0.553,0-1-0.448-1-1s0.447-1,1-1h16c0.553,0,1,0.448,1,1S25.553,29,25,29z M51,53 H35c-0.553,0-1-0.448-1-1s0.447-1,1-1h16c0.553,0,1,0.448,1,1S51.553,53,51,53z M51,49H35c-0.553,0-1-0.448-1-1s0.447-1,1-1h16 c0.553,0,1,0.448,1,1S51.553,49,51,49z M51,45H35c-0.553,0-1-0.448-1-1s0.447-1,1-1h16c0.553,0,1,0.448,1,1S51.553,45,51,45z M51,41H35c-0.553,0-1-0.448-1-1s0.447-1,1-1h16c0.553,0,1,0.448,1,1S51.553,41,51,41z M51,37H35c-0.553,0-1-0.448-1-1s0.447-1,1-1 h16c0.553,0,1,0.448,1,1S51.553,37,51,37z M51,33H35c-0.553,0-1-0.448-1-1s0.447-1,1-1h16c0.553,0,1,0.448,1,1S51.553,33,51,33z M51,29H35c-0.553,0-1-0.448-1-1s0.447-1,1-1h16c0.553,0,1,0.448,1,1S51.553,29,51,29z"></path> </g> </g>
</svg>
