<?xml version="1.0" standalone="no"?>
<!DOCTYPE svg PUBLIC "-//W3C//DTD SVG 20010904//EN"
 "http://www.w3.org/TR/2001/REC-SVG-20010904/DTD/svg10.dtd">
<svg version="1.0" xmlns="http://www.w3.org/2000/svg"
 width="512.000000pt" height="512.000000pt" viewBox="0 0 512.000000 512.000000"
 preserveAspectRatio="xMidYMid meet">

<g transform="translate(0.000000,512.000000) scale(0.100000,-0.100000)"
fill="currentColor" stroke="none">
<path d="M0 4095 l0 -385 2560 0 2560 0 0 385 0 385 -2560 0 -2560 0 0 -385z"/>
<path d="M1020 2560 l0 -380 1540 0 1540 0 0 380 0 380 -1540 0 -1540 0 0
-380z"/>
<path d="M2050 1025 l0 -385 510 0 510 0 0 385 0 385 -510 0 -510 0 0 -385z"/>
</g>
</svg>
