<svg xmlns="http://www.w3.org/2000/svg" version="1.1" width="512px" height="512px" style="shape-rendering:geometricPrecision; text-rendering:geometricPrecision; image-rendering:optimizeQuality; fill-rule:evenodd; clip-rule:evenodd" xmlns:xlink="http://www.w3.org/1999/xlink">
<g><path style="opacity:0.959" fill="currentcolor" d="M 258.5,-0.5 C 261.5,-0.5 264.5,-0.5 267.5,-0.5C 268.122,0.626561 268.955,1.62656 270,2.5C 270.5,18.1631 270.667,33.8298 270.5,49.5C 281.796,46.3174 286.629,50.3174 285,61.5C 284.167,62.3333 283.333,63.1667 282.5,64C 278.514,64.4988 274.514,64.6655 270.5,64.5C 270.5,104.5 270.5,144.5 270.5,184.5C 285.833,184.5 301.167,184.5 316.5,184.5C 317.676,177.991 321.009,172.824 326.5,169C 320.803,164.108 317.303,157.941 316,150.5C 315.333,129.167 315.333,107.833 316,86.5C 321.167,64 335,50.1667 357.5,45C 376.66,41.9434 393.16,47.1101 407,60.5C 422.545,81.7112 436.878,103.711 450,126.5C 450.951,133.623 450.451,140.623 448.5,147.5C 449,149.5 449.5,151.5 450,153.5C 450.329,160.595 450.496,167.595 450.5,174.5C 479.99,157.55 495.157,131.883 496,97.5C 500.667,93.5 505.333,93.5 510,97.5C 510.496,145.004 488.662,177.504 444.5,195C 436.672,197.466 428.672,198.966 420.5,199.5C 420.333,219.169 420.5,238.836 421,258.5C 428.097,267.698 432.764,278.031 435,289.5C 441.085,349.104 446.085,408.77 450,468.5C 449.167,469.333 448.333,470.167 447.5,471C 433.504,471.5 419.504,471.667 405.5,471.5C 405.5,477.167 405.5,482.833 405.5,488.5C 414.573,491.024 423.573,493.857 432.5,497C 436.463,501.832 436.463,506.666 432.5,511.5C 429.5,511.5 426.5,511.5 423.5,511.5C 413.711,507.735 403.711,504.235 393.5,501C 392.667,500.167 391.833,499.333 391,498.5C 390.5,489.506 390.334,480.506 390.5,471.5C 375.5,471.5 360.5,471.5 345.5,471.5C 345.666,480.506 345.5,489.506 345,498.5C 344.167,499.333 343.333,500.167 342.5,501C 332.289,504.235 322.289,507.735 312.5,511.5C 309.5,511.5 306.5,511.5 303.5,511.5C 299.537,506.666 299.537,501.832 303.5,497C 312.427,493.857 321.427,491.024 330.5,488.5C 330.5,482.833 330.5,477.167 330.5,471.5C 316.496,471.667 302.496,471.5 288.5,471C 287.667,470.167 286.833,469.333 286,468.5C 289.915,408.77 294.915,349.104 301,289.5C 303.236,278.031 307.903,267.698 315,258.5C 315.5,238.836 315.667,219.169 315.5,199.5C 300.5,199.5 285.5,199.5 270.5,199.5C 270.5,253.5 270.5,307.5 270.5,361.5C 281.796,358.317 286.629,362.317 285,373.5C 284.167,374.333 283.333,375.167 282.5,376C 278.514,376.499 274.514,376.666 270.5,376.5C 270.667,420.501 270.5,464.501 270,508.5C 268.955,509.373 268.122,510.373 267.5,511.5C 264.5,511.5 261.5,511.5 258.5,511.5C 257.878,510.373 257.045,509.373 256,508.5C 255.5,484.502 255.333,460.502 255.5,436.5C 244.204,439.683 239.371,435.683 241,424.5C 241.833,423.667 242.667,422.833 243.5,422C 247.486,421.501 251.486,421.334 255.5,421.5C 255.5,347.5 255.5,273.5 255.5,199.5C 233.665,201.165 223.831,191.165 226,169.5C 231.864,156.984 241.697,151.984 255.5,154.5C 255.5,144.5 255.5,134.5 255.5,124.5C 244.204,127.683 239.371,123.683 241,112.5C 241.833,111.667 242.667,110.833 243.5,110C 247.486,109.501 251.486,109.334 255.5,109.5C 255.333,73.8318 255.5,38.1651 256,2.5C 257.045,1.62656 257.878,0.626561 258.5,-0.5 Z M 356.5,61.5 C 357.376,61.3691 358.043,61.7025 358.5,62.5C 354.167,74.8333 345.833,83.1667 333.5,87.5C 333.167,87.1667 332.833,86.8333 332.5,86.5C 336.485,74.1841 344.485,65.8508 356.5,61.5 Z M 377.5,61.5 C 390.387,65.3864 399.054,73.7197 403.5,86.5C 403.167,86.8333 402.833,87.1667 402.5,87.5C 389.72,83.054 381.386,74.3873 377.5,61.5 Z M 367.5,80.5 C 376.69,93.1517 389.023,101.318 404.5,105C 395.367,129.399 378.367,138.066 353.5,131C 342.565,125.397 335.232,116.731 331.5,105C 346.971,101.658 358.971,93.491 367.5,80.5 Z M 419.5,108.5 C 423.646,114.099 427.812,119.766 432,125.5C 433.872,128.205 434.705,131.205 434.5,134.5C 433.797,138.905 432.797,143.238 431.5,147.5C 431.466,150.433 432.299,153.1 434,155.5C 436.408,165.511 433.575,173.678 425.5,180C 423.598,181.301 421.598,181.968 419.5,182C 415.681,173.513 409.347,167.847 400.5,165C 384.5,164.667 368.5,164.333 352.5,164C 336.455,161.127 329.455,151.627 331.5,135.5C 344.898,147.574 360.565,152.074 378.5,149C 400.648,144.019 414.314,130.519 419.5,108.5 Z M 248.5,169.5 C 250.833,169.5 253.167,169.5 255.5,169.5C 255.5,174.5 255.5,179.5 255.5,184.5C 250.34,185.089 245.84,183.755 242,180.5C 240.302,174.394 242.469,170.727 248.5,169.5 Z M 343.5,179.5 C 345.459,185.75 346.126,192.416 345.5,199.5C 340.5,199.5 335.5,199.5 330.5,199.5C 328.91,188.623 333.243,181.957 343.5,179.5 Z M 360.5,179.5 C 371.172,179.333 381.839,179.5 392.5,180C 397.902,180.117 401.736,182.617 404,187.5C 405.864,206.479 405.864,225.479 404,244.5C 396.572,279.928 375.405,302.428 340.5,312C 331.888,313.384 323.221,314.218 314.5,314.5C 314.495,300.845 317.329,287.845 323,275.5C 324.167,273.833 325.333,272.167 326.5,270.5C 343.836,267.328 355.003,257.328 360,240.5C 360.5,220.169 360.667,199.836 360.5,179.5 Z M 330.5,214.5 C 335.5,214.5 340.5,214.5 345.5,214.5C 345.723,222.547 345.223,230.547 344,238.5C 341.391,244.775 337.058,249.442 331,252.5C 330.5,239.838 330.333,227.171 330.5,214.5 Z M 411.5,274.5 C 414.69,278.214 416.857,282.547 418,287.5C 419.676,296.437 420.843,305.437 421.5,314.5C 414.493,314.166 407.493,313.666 400.5,313C 394.834,312.253 389.5,310.586 384.5,308C 395.929,298.743 404.929,287.576 411.5,274.5 Z M 366.5,319.5 C 375.299,322.895 384.299,325.728 393.5,328C 403.116,329.324 412.783,329.824 422.5,329.5C 426.5,371.833 430.5,414.167 434.5,456.5C 390.167,456.5 345.833,456.5 301.5,456.5C 305.5,414.167 309.5,371.833 313.5,329.5C 332.27,331.208 349.937,327.875 366.5,319.5 Z"/></g>
<g><path style="opacity:0.966" fill="#000000" d="M 192.5,511.5 C 189.5,511.5 186.5,511.5 183.5,511.5C 182.878,510.373 182.045,509.373 181,508.5C 180.833,480.827 180.333,453.161 179.5,425.5C 177.082,424.543 174.916,423.209 173,421.5C 171.172,423.081 169.172,424.415 167,425.5C 166.667,452.833 166.333,480.167 166,507.5C 164.624,508.705 163.458,510.038 162.5,511.5C 159.833,511.5 157.167,511.5 154.5,511.5C 153.542,510.038 152.376,508.705 151,507.5C 150.833,480.161 150.333,452.827 149.5,425.5C 147.082,424.543 144.916,423.209 143,421.5C 136.581,426.183 129.414,427.683 121.5,426C 118.302,425.152 115.469,423.652 113,421.5C 106.331,426.374 98.9972,427.707 91,425.5C 90.6667,453.167 90.3333,480.833 90,508.5C 88.955,509.373 88.1217,510.373 87.5,511.5C 84.5,511.5 81.5,511.5 78.5,511.5C 77.8783,510.373 77.045,509.373 76,508.5C 75.8331,484.16 75.3331,459.826 74.5,435.5C 65.6166,440.919 55.9499,442.919 45.5,441.5C 45.6666,463.836 45.5,486.169 45,508.5C 43.955,509.373 43.1217,510.373 42.5,511.5C 39.5,511.5 36.5,511.5 33.5,511.5C 32.8783,510.373 32.045,509.373 31,508.5C 30.8333,469.162 30.3333,429.829 29.5,390.5C 21.6075,395.805 12.9408,397.638 3.5,396C 2.66667,395.167 1.83333,394.333 1,393.5C 0.333333,379.167 0.333333,364.833 1,350.5C 5.16667,335.667 14.6667,326.167 29.5,322C 65.1667,321.667 100.833,321.333 136.5,321C 135.341,300.906 135.174,280.74 136,260.5C 139.568,247.264 147.735,238.097 160.5,233C 171.779,231.878 183.112,231.378 194.5,231.5C 205.568,231.367 216.568,231.867 227.5,233C 238.544,238.928 242.711,248.095 240,260.5C 237.592,267.909 232.758,273.076 225.5,276C 222.696,282.637 218.029,287.47 211.5,290.5C 210.667,330.496 210.167,370.496 210,410.5C 207.79,417.544 203.29,422.544 196.5,425.5C 195.667,453.161 195.167,480.827 195,508.5C 193.955,509.373 193.122,510.373 192.5,511.5 Z M 172.5,246.5 C 187.504,246.333 202.504,246.5 217.5,247C 223.74,247.916 225.906,251.416 224,257.5C 221.058,260.122 217.558,261.622 213.5,262C 210.878,264.942 209.378,268.442 209,272.5C 206.058,275.122 202.558,276.622 198.5,277C 197.667,277.833 196.833,278.667 196,279.5C 195.978,322.213 195.312,364.879 194,407.5C 190,411.5 186,411.5 182,407.5C 180.854,396.135 175.52,393.468 166,399.5C 166.151,407.692 162.317,411.192 154.5,410C 151.878,407.058 150.378,403.558 150,399.5C 140.48,393.468 135.146,396.135 134,407.5C 130,411.5 126,411.5 122,407.5C 120.854,396.135 115.52,393.468 106,399.5C 106.151,407.692 102.317,411.192 94.5,410C 91.8783,407.058 90.3783,403.558 90,399.5C 85.3333,395.5 80.6667,395.5 76,399.5C 74.4505,418.215 64.2839,427.215 45.5,426.5C 45.3334,404.164 45.5,381.831 46,359.5C 47.369,346.464 54.5357,338.964 67.5,337C 99.8333,336.667 132.167,336.333 164.5,336C 172.333,333.5 177.5,328.333 180,320.5C 180.667,301.833 180.667,283.167 180,264.5C 175.333,260.5 170.667,260.5 166,264.5C 165.945,282.219 165.278,299.886 164,317.5C 160,321.5 156,321.5 152,317.5C 150.045,299.184 150.045,280.851 152,262.5C 155.849,253.132 162.682,247.798 172.5,246.5 Z M 31.5,337.5 C 33.1992,337.34 34.8659,337.506 36.5,338C 34.3485,340.469 32.8485,343.302 32,346.5C 30.7554,352.789 29.7554,359.122 29,365.5C 26.391,371.775 22.0576,376.442 16,379.5C 15.2354,370.459 15.5687,361.459 17,352.5C 20.0214,345.647 24.8548,340.647 31.5,337.5 Z"/></g>
</svg>
