<svg class="svg-inline--fa fa-tags fa-w-20"
        role="img" aria-hidden="true" focusable="false" data-prefix="fas" data-icon="trinidad" height="200px" width="200px" version="1.1" id="Capa_1" xmlns="http://www.w3.org/2000/svg" xmlns:xlink="http://www.w3.org/1999/xlink" viewBox="0 0 59.13 59.13" xml:space="preserve"><g id="SVGRepo_bgCarrier" stroke-width="0"></g><g id="SVGRepo_tracerCarrier" stroke-linecap="round" stroke-linejoin="round"></g><g id="SVGRepo_iconCarrier"> 
    <path fill="currentcolor" d="M38.275,30.398c1.286-3.047,1.965-6.331,1.965-9.716c0-6.954-2.841-13.488-8-18.397L29.839,0l-2.401,2.284 c-5.159,4.91-8,11.443-8,18.397c0,3.358,0.668,6.615,1.935,9.642C9.529,32.901,1.336,43.274,1.644,55.727l0.083,3.313l3.313,0.083 c0.224,0.005,0.447,0.008,0.67,0.008c11.023,0,20.465-6.662,24.096-16.563c3.511,9.901,12.765,16.563,23.616,16.563h0.001 c0.223,0,0.445-0.003,0.669-0.008l3.313-0.083l0.083-3.313C57.79,43.431,49.813,33.09,38.275,30.398z"></path> </g>    
</svg>